<?xml version="1.0" encoding="utf-8"?>

<!-- Uploaded to: SVG Repo, www.svgrepo.com, Generator: SVG Repo Mixer Tools -->
<svg version="1.1" id="Icons" xmlns="http://www.w3.org/2000/svg" xmlns:xlink="http://www.w3.org/1999/xlink" 
	 viewBox="0 0 100 100" xml:space="preserve">
<style type="text/css">
	.st0{fill:none;stroke:#000000;stroke-width:2;stroke-linecap:round;stroke-linejoin:round;stroke-miterlimit:10;}
</style>
<g>
	<path d="M25,19H7c-1.7,0-3-1.3-3-3s1.3-3,3-3h18c1.7,0,3,1.3,3,3S26.7,19,25,19z"/>
</g>
<path d="M20,0h-8C9.2,0,7,2.2,7,5v6h18V5C25,2.2,22.8,0,20,0z M14,6h-2c-0.6,0-1-0.4-1-1s0.4-1,1-1h2c0.6,0,1,0.4,1,1S14.6,6,14,6z"
	/>
<path d="M16,30c-2.7,0-5.2-0.9-7.3-2.5L8,30.8c-0.1,0.3,0,0.6,0.2,0.8C8.4,31.9,8.7,32,9,32h14c0.3,0,0.6-0.1,0.8-0.4
	c0.2-0.2,0.3-0.5,0.2-0.8l-0.7-3.2C21.2,29.1,18.7,30,16,30z"/>
<g>
	<path d="M6.5,21c1.3,4.1,5.1,7,9.5,7s8.3-2.9,9.5-7H6.5z"/>
</g>
</svg>