<?xml version="1.0" encoding="utf-8"?>
<!-- Uploaded to: SVG Repo, www.svgrepo.com, Generator: SVG Repo Mixer Tools -->
<svg fill="#00ff00" version="1.1" id="Layer_1" xmlns="http://www.w3.org/2000/svg" xmlns:xlink="http://www.w3.org/1999/xlink" 
	 width="800px" height="800px" viewBox="0 0 256 253" enable-background="new 0 0 256 253" xml:space="preserve">
<path d="M176.124,168.694c0,10.138-2.897,16.809-7.066,24.973c-7.417,12.464-12.201,19.838-14.396,21.988l-0.527,0.571
	c-3.599,3.423-7.593,5.223-11.938,5.223c-5.969,0-10.709-2.546-14.132-6.934h-0.176c-3.467,4.389-8.119,6.934-14.088,6.934
	c-4.345,0-8.295-1.843-11.938-5.267l-0.527-0.527c-2.151-2.151-6.978-9.48-14.396-21.988c-4.169-8.163-7.066-14.834-7.066-24.973
	c0-7.768,2.765-14.439,8.251-19.969c5.53-5.53,12.201-8.251,19.969-8.251c7.812,0,14.308,2.502,19.75,8.207h0.176
	c5.442-5.706,12.026-8.207,19.838-8.207s14.439,2.721,19.969,8.251C173.359,154.254,176.124,160.881,176.124,168.694z
	 M169.365,170.713c0.263-5.574-1.756-10.972-5.706-15.142c-4.213-4.433-10.138-6.978-16.283-6.978c-1.492,0-2.677,1.185-2.677,2.677
	s1.185,2.677,2.677,2.677c4.652,0,9.173,1.931,12.377,5.311c2.984,3.116,4.477,7.066,4.257,11.192
	c-0.176,3.643-1.448,7.944-3.818,12.728c-0.658,1.317-0.088,2.897,1.229,3.555c0.395,0.176,0.79,0.263,1.185,0.263
	c1.009,0,1.931-0.527,2.414-1.492C167.697,180.061,169.146,175.058,169.365,170.713z M144.217,134.768
	c-3.292,2.326-16.239,10.446-16.239,10.446l-6.891-27.869l5.749-4.082l3.774,16.546c0.878-9.656,6.847-14.308,21.242-19.179
	C153.565,122.742,152.073,129.018,144.217,134.768z M2,69c0,13.678,9.625,25.302,22,29.576V233H2v18h252v-18h-22V98.554
	c12.89-3.945,21.699-15.396,22-29.554v-8H2V69z M65.29,68.346c0,6.477,6.755,31.47,31.727,31.47
	c21.689,0,31.202-19.615,31.202-31.47c0,11.052,7.41,31.447,31.464,31.447c21.733,0,31.363-20.999,31.363-31.447
	c0,14.425,9.726,26.416,22.954,30.154V233H42V98.594C55.402,94.966,65.29,82.895,65.29,68.346z M222.832,22H223V2H34v20L2,54h252
	L222.832,22z"/>
</svg>